<?xml version="1.0" encoding="utf-8"?>
<!-- Generator: Adobe Illustrator 16.0.0, SVG Export Plug-In . SVG Version: 6.00 Build 0)  -->
<!DOCTYPE svg PUBLIC "-//W3C//DTD SVG 1.1//EN" "http://www.w3.org/Graphics/SVG/1.1/DTD/svg11.dtd">
<svg version="1.1" id="Layer_1" xmlns="http://www.w3.org/2000/svg" xmlns:xlink="http://www.w3.org/1999/xlink" x="0px" y="0px"
	 width="50px" height="50px" viewBox="0 0 50 50" enable-background="new 0 0 50 50" xml:space="preserve">
<path fill="#2CBEC3" d="M25,2c12.682,0,23.001,10.317,23.001,23c0,12.682-10.319,23.001-23.001,23.001C12.317,48.001,2,37.682,2,25
	C2,12.317,12.317,2,25,2 M25,0C11.193,0,0,11.193,0,25s11.193,25,25,25c13.807,0,25-11.193,25-25S38.807,0,25,0L25,0z"/>
<g>
	<path fill="#2CBEC3" d="M16.095,21.679c0.279,0.197,1.12,0.782,2.522,1.753c1.401,0.973,2.476,1.721,3.222,2.245
		c0.082,0.058,0.256,0.183,0.523,0.375s0.487,0.349,0.664,0.467c0.177,0.119,0.39,0.252,0.64,0.4s0.485,0.259,0.707,0.332
		s0.427,0.11,0.616,0.11H25h0.013c0.188,0,0.393-0.037,0.615-0.11c0.221-0.073,0.457-0.184,0.708-0.332
		c0.25-0.148,0.463-0.281,0.64-0.4c0.176-0.118,0.397-0.274,0.664-0.467c0.266-0.192,0.44-0.317,0.522-0.375
		c0.754-0.524,2.673-1.857,5.757-3.998c0.597-0.417,1.098-0.922,1.5-1.513c0.402-0.59,0.603-1.209,0.603-1.857
		c0-0.541-0.194-1.004-0.584-1.39s-0.851-0.578-1.384-0.578H15.948c-0.632,0-1.117,0.213-1.458,0.64
		c-0.34,0.426-0.51,0.959-0.51,1.6c0,0.516,0.225,1.076,0.677,1.678C15.107,20.861,15.587,21.335,16.095,21.679z M25.754,24.378
		c0,0.083-0.03,0.156-0.091,0.217c-0.062,0.061-0.133,0.092-0.217,0.092h-1.23c-0.083,0-0.155-0.031-0.216-0.092
		s-0.091-0.134-0.091-0.217v-1.076c0-0.083,0.031-0.155,0.091-0.216s0.133-0.092,0.216-0.092h1.23c0.084,0,0.155,0.031,0.217,0.092
		c0.061,0.061,0.091,0.133,0.091,0.216V24.378z M23.85,18.013c0.06-0.062,0.13-0.092,0.213-0.092h1.538
		c0.084,0,0.155,0.03,0.213,0.092c0.06,0.061,0.088,0.133,0.085,0.216l-0.134,3.689c-0.004,0.084-0.037,0.155-0.099,0.218
		c-0.062,0.06-0.135,0.09-0.219,0.09h-1.23c-0.083,0-0.156-0.03-0.218-0.09c-0.062-0.062-0.095-0.134-0.098-0.218l-0.135-3.689
		C23.762,18.146,23.79,18.073,23.85,18.013z"/>
	<path fill="#2CBEC3" d="M34.791,22.995c-2.69,1.82-4.731,3.234-6.125,4.242c-0.468,0.346-0.848,0.614-1.139,0.808
		c-0.291,0.192-0.678,0.39-1.163,0.59c-0.482,0.201-0.934,0.301-1.352,0.301H25h-0.012c-0.418,0-0.87-0.1-1.354-0.301
		c-0.484-0.2-0.872-0.397-1.163-0.59c-0.291-0.193-0.67-0.462-1.137-0.808c-1.107-0.811-3.145-2.226-6.113-4.242
		c-0.467-0.312-0.881-0.668-1.242-1.07v9.767c0,0.541,0.192,1.004,0.579,1.391c0.385,0.384,0.848,0.577,1.39,0.577h18.105
		c0.541,0,1.004-0.193,1.39-0.577c0.385-0.387,0.578-0.85,0.578-1.391v-9.767C35.668,22.319,35.258,22.676,34.791,22.995z"/>
</g>
</svg>
