<?xml version="1.0" encoding="utf-8"?>
<!-- Generator: Adobe Illustrator 16.0.0, SVG Export Plug-In . SVG Version: 6.00 Build 0)  -->
<!DOCTYPE svg PUBLIC "-//W3C//DTD SVG 1.1//EN" "http://www.w3.org/Graphics/SVG/1.1/DTD/svg11.dtd">
<svg version="1.1" id="Layer_1" xmlns="http://www.w3.org/2000/svg" xmlns:xlink="http://www.w3.org/1999/xlink" x="0px" y="0px"
	 width="100px" height="100px" viewBox="0 0 100 100" enable-background="new 0 0 100 100" xml:space="preserve">
<path fill="#A2A6AA" d="M50,4c25.364,0,46,20.636,46,46S75.364,96,50,96S4,75.364,4,50S24.636,4,50,4 M50,0C22.386,0,0,22.387,0,50
	c0,27.614,22.386,50,50,50s50-22.386,50-50C100,22.387,77.614,0,50,0L50,0z"/>
<g>
	<path fill-rule="evenodd" clip-rule="evenodd" fill="#A2A6AA" d="M53.025,38.931c-0.151,1.315-0.268,2.636-0.468,3.943
		c-0.083,0.538,0.036,0.863,0.448,1.222c6.334,5.51,12.656,11.034,18.973,16.563c2.094,1.835,2.875,5.052,1.924,7.776
		c-0.975,2.783-3.57,4.771-6.392,4.917c-2.467,0.128-4.505-0.724-6.126-2.591c-5.416-6.242-10.843-12.477-16.242-18.733
		c-0.402-0.467-0.764-0.55-1.336-0.443c-2.414,0.448-4.838,0.522-7.262,0.05c-4.134-0.805-6.561-3.516-8.019-7.261
		c-0.846-2.174-1.022-4.438-0.632-6.734c0.054-0.317,0.285-0.771,0.528-0.843c0.247-0.072,0.678,0.182,0.912,0.41
		c1.678,1.644,3.322,3.324,4.994,4.973c0.218,0.214,0.531,0.387,0.827,0.454c1.44,0.328,2.892,0.606,4.334,0.918
		c0.41,0.089,0.714,0.049,1.036-0.287c1.25-1.303,2.535-2.571,3.82-3.84c0.256-0.252,0.344-0.474,0.259-0.851
		c-0.346-1.524-0.626-3.064-0.968-4.59c-0.061-0.273-0.254-0.548-0.455-0.754c-1.646-1.676-3.319-3.325-4.955-5.012
		c-0.225-0.232-0.434-0.656-0.372-0.93c0.048-0.215,0.511-0.434,0.813-0.478c4.741-0.7,8.789,0.671,11.973,4.267
		c1.656,1.869,2.113,4.241,2.271,6.668c0.026,0.39,0.005,0.783,0.005,1.175C52.953,38.924,52.988,38.928,53.025,38.931z
		 M65.161,65.993c-0.004,1.053,0.806,1.873,1.839,1.862c0.991-0.011,1.814-0.851,1.808-1.842C68.8,65.003,68,64.207,66.983,64.197
		C65.965,64.188,65.166,64.975,65.161,65.993z"/>
	<path fill-rule="evenodd" clip-rule="evenodd" fill="#A2A6AA" d="M48.268,60.866c-0.236,0.425-0.377,0.882-0.676,1.186
		c-3.483,3.53-6.986,7.041-10.494,10.547c-0.799,0.8-1.73,0.787-2.531-0.005c-1.375-1.363-2.742-2.734-4.1-4.114
		c-0.785-0.798-0.791-1.746-0.006-2.536c3.587-3.612,7.179-7.22,10.776-10.819c0.848-0.847,1.836-0.815,2.613,0.077
		c1.299,1.491,2.59,2.991,3.854,4.515C47.951,60.015,48.06,60.43,48.268,60.866z"/>
	<path fill-rule="evenodd" clip-rule="evenodd" fill="#A2A6AA" d="M69.181,30.573c1.128,1.12,2.219,2.204,3.335,3.314
		c-0.77,1.037-1.531,2.094-2.331,3.121c-0.159,0.202-0.453,0.341-0.712,0.416c-1.525,0.446-2.712,1.349-3.797,2.498
		c-1.911,2.025-3.917,3.957-5.876,5.936c-0.167,0.168-0.284,0.387-0.452,0.623c-1.002-0.876-1.881-1.645-2.826-2.47
		c1.551-1.531,3.066-3.026,4.579-4.525c0.634-0.627,1.224-1.305,1.896-1.886c1.302-1.119,2.24-2.451,2.731-4.105
		c0.085-0.284,0.325-0.562,0.565-0.75C67.247,31.996,68.229,31.284,69.181,30.573z"/>
</g>
</svg>
