<?xml version="1.0" encoding="utf-8"?>
<!-- Generator: Adobe Illustrator 16.0.0, SVG Export Plug-In . SVG Version: 6.00 Build 0)  -->
<!DOCTYPE svg PUBLIC "-//W3C//DTD SVG 1.1//EN" "http://www.w3.org/Graphics/SVG/1.1/DTD/svg11.dtd">
<svg version="1.1" id="Layer_1" xmlns="http://www.w3.org/2000/svg" xmlns:xlink="http://www.w3.org/1999/xlink" x="0px" y="0px"
	 width="100px" height="100px" viewBox="0 0 100 100" enable-background="new 0 0 100 100" xml:space="preserve">
<g>
	<g>
		<path fill="#A2A6AA" d="M50,4c25.364,0,46,20.636,46,46S75.364,96,50,96S4,75.364,4,50S24.636,4,50,4 M50,0
			C22.386,0,0,22.387,0,50c0,27.614,22.386,50,50,50s50-22.386,50-50C100,22.387,77.614,0,50,0L50,0z"/>
	</g>
	<g>
		<path fill="#A2A6AA" d="M53.019,44.392c-0.838,0-1.552-0.294-2.138-0.881c-0.587-0.587-0.88-1.3-0.88-2.138V24.267H32.895
			c-0.839,0-1.552,0.294-2.139,0.881s-0.88,1.3-0.88,2.138v45.43c0,0.838,0.294,1.551,0.88,2.138c0.587,0.587,1.3,0.881,2.139,0.881
			h34.211c0.839,0,1.552-0.294,2.139-0.881s0.88-1.3,0.88-2.138V44.392H53.019z M34.957,34.554h10.389v9.687
			c-0.255-0.311-0.726-0.393-1.132-0.563c-0.544-0.229-1.146-0.492-1.69-0.714c-0.155-0.041-0.308-0.083-0.461-0.125
			c-0.187-0.128-0.368-0.548-0.467-0.754c-0.1-0.016-0.199-0.029-0.295-0.045c0.014-0.321,0.216-0.339,0.295-0.587
			c0.068-0.216,0.008-0.498,0.115-0.699c0.079-0.14,0.25-0.141,0.338-0.262c0.077-0.109,0.13-0.297,0.153-0.432
			c0.049-0.243,0.084-0.577-0.029-0.817c-0.068-0.139-0.111-0.151-0.13-0.321c-0.02-0.203,0.062-0.869,0.064-1.014
			c0.011-0.374,0-0.714-0.089-1.075c0,0-0.113-0.33-0.285-0.429l-0.346-0.06l-0.216-0.197c-0.859-0.524-1.783-0.156-2.273,0.043
			c-0.712,0.229-1.166,1.227-0.852,2.708c0.056,0.251-0.139,0.363-0.123,0.501c0.026,0.303,0.034,1.025,0.317,1.203
			c0.026,0.019,0.229,0.071,0.229,0.056c0.03,0.292,0.055,0.586,0.085,0.879c0.07,0.195,0.242,0.218,0.295,0.493l-0.22,0.055
			c-0.1,0.206-0.281,0.626-0.468,0.754c-0.153,0.042-0.31,0.084-0.465,0.126c-0.541,0.222-1.144,0.483-1.688,0.713
			c-0.368,0.152-0.787,0.235-1.054,0.474V34.554L34.957,34.554z M65.243,63.913c0,0.293-0.095,0.534-0.283,0.723
			c-0.189,0.188-0.43,0.283-0.724,0.283H35.765c-0.294,0-0.535-0.095-0.724-0.283s-0.283-0.43-0.283-0.723V61.9
			c0-0.293,0.095-0.534,0.283-0.723c0.188-0.189,0.43-0.284,0.724-0.284h28.472c0.294,0,0.535,0.095,0.724,0.284
			c0.188,0.188,0.283,0.43,0.283,0.723V63.913z M58.907,55.46c0,0.294-0.094,0.535-0.283,0.723c-0.188,0.189-0.43,0.284-0.724,0.284
			H35.765c-0.294,0-0.535-0.095-0.724-0.284c-0.188-0.188-0.283-0.429-0.283-0.723v-2.013c0-0.293,0.095-0.535,0.283-0.724
			c0.188-0.188,0.43-0.282,0.724-0.282H57.9c0.294,0,0.535,0.095,0.724,0.282c0.189,0.188,0.283,0.431,0.283,0.724V55.46
			L58.907,55.46z"/>
		<path fill="#A2A6AA" d="M67.987,36.216l-9.812-9.811c-1.049-1.049-2.432-1.729-4.15-2.044v16.005H70.03
			C69.716,38.647,69.034,37.264,67.987,36.216z"/>
	</g>
</g>
</svg>
