<?xml version="1.0" encoding="utf-8"?>
<!-- Generator: Adobe Illustrator 16.0.0, SVG Export Plug-In . SVG Version: 6.00 Build 0)  -->
<!DOCTYPE svg PUBLIC "-//W3C//DTD SVG 1.1//EN" "http://www.w3.org/Graphics/SVG/1.1/DTD/svg11.dtd">
<svg version="1.1" id="Layer_1" xmlns="http://www.w3.org/2000/svg" xmlns:xlink="http://www.w3.org/1999/xlink" x="0px" y="0px"
	 width="50px" height="50px" viewBox="0 0 50 50" enable-background="new 0 0 50 50" xml:space="preserve">
<path fill="#2CBEC3" d="M25,0C11.193,0,0,11.193,0,25s11.193,25,25,25c13.807,0,25-11.193,25-25S38.807,0,25,0L25,0z"/>
<path fill="#FFFFFF" d="M38.666,25c0,2.226-0.524,4.323-1.507,6.163c-1.244,2.391-3.205,4.391-5.628,5.681
	c-1.933,1.033-4.159,1.646-6.514,1.646c-2.291,0-4.451-0.578-6.353-1.548c-2.423-1.259-4.418-3.195-5.728-5.585
	c-1.015-1.902-1.604-4.064-1.604-6.356c0-7.455,6.122-13.489,13.684-13.489C32.546,11.511,38.666,17.545,38.666,25z M35.262,25
	c0-5.584-4.615-10.136-10.244-10.136c-5.665,0-10.28,4.552-10.28,10.136c0,0.936,0.165,1.871,0.394,2.744
	c0.1,0.291,0.197,0.549,0.294,0.806c0.457-0.131,0.982-0.193,1.472-0.193c2.85,0,5.175,2.26,5.175,5.066
	c0,0.42-0.067,0.81-0.166,1.192c0.13,0.069,0.262,0.101,0.392,0.132c0.885,0.226,1.77,0.354,2.719,0.354
	c0.98,0,1.929-0.129,2.846-0.386c0.13-0.031,0.229-0.101,0.359-0.132c-0.096-0.418-0.162-0.838-0.162-1.29
	c0-2.775,2.324-5.066,5.139-5.066c0.491,0,0.984,0.065,1.441,0.191c0.096-0.258,0.195-0.546,0.262-0.836
	C35.132,26.742,35.262,25.904,35.262,25z M16.309,23.227h3.111v1.225h-3.111V23.227z M18.927,18.317l2.192,2.166l-0.881,0.903
	l-2.227-2.196L18.927,18.317z M27.144,25c0,0.258-0.033,0.519-0.163,0.775c-0.326,0.772-1.079,1.257-1.899,1.257
	c-0.262,0-0.523-0.063-0.783-0.161c-0.788-0.323-1.277-1.064-1.277-1.871c0-0.098,0.032-0.193,0.032-0.291l-1.834-7.905l0.688-0.291
	l4.418,6.874C26.851,23.773,27.144,24.356,27.144,25z M25.67,18.964h-1.277V15.9h1.277V18.964z M31.595,19.19l-2.225,2.196
	l-0.884-0.903l2.227-2.166L31.595,19.19z M30.614,23.227h3.144v1.225h-3.144V23.227z"/>
</svg>
