<?xml version="1.0" encoding="utf-8"?>
<!-- Generator: Adobe Illustrator 16.0.0, SVG Export Plug-In . SVG Version: 6.00 Build 0)  -->
<!DOCTYPE svg PUBLIC "-//W3C//DTD SVG 1.1//EN" "http://www.w3.org/Graphics/SVG/1.1/DTD/svg11.dtd">
<svg version="1.1" id="Layer_1" xmlns="http://www.w3.org/2000/svg" xmlns:xlink="http://www.w3.org/1999/xlink" x="0px" y="0px"
	 width="50px" height="50px" viewBox="0 0 50 50" enable-background="new 0 0 50 50" xml:space="preserve">
<path fill="#2CBEC3" d="M25,0C11.193,0,0,11.193,0,25s11.193,25,25,25c13.807,0,25-11.193,25-25S38.807,0,25,0L25,0z"/>
<g>
	<circle fill="#FFFFFF" cx="24.167" cy="17.373" r="6.258"/>
	<path fill="#FFFFFF" d="M30.614,26.104c-0.714-0.249-1.479-0.387-2.275-0.387h-8.345c-3.825,0-6.953,3.13-6.953,6.954v3.477h12.111
		L30.614,26.104z"/>
	<g>
		<path fill="#FFFFFF" d="M34.421,26.254l4.93,9.038c0.149,0.271,0.145,0.539-0.014,0.809c-0.072,0.124-0.172,0.223-0.298,0.296
			c-0.126,0.072-0.262,0.109-0.407,0.109h-9.86c-0.146,0-0.281-0.037-0.407-0.109c-0.127-0.073-0.226-0.172-0.298-0.296
			c-0.159-0.27-0.163-0.538-0.014-0.809l4.93-9.038c0.073-0.132,0.174-0.237,0.302-0.314c0.129-0.077,0.268-0.115,0.417-0.115
			c0.15,0,0.289,0.038,0.418,0.115C34.247,26.017,34.348,26.122,34.421,26.254z M34.51,32.249l0.116-2.946
			c0-0.051-0.021-0.091-0.064-0.121c-0.055-0.047-0.107-0.071-0.154-0.071h-1.411c-0.048,0-0.1,0.024-0.154,0.071
			c-0.044,0.03-0.064,0.074-0.064,0.135l0.108,2.933c0,0.044,0.021,0.079,0.064,0.106s0.095,0.042,0.154,0.042h1.187
			c0.062,0,0.111-0.015,0.151-0.042C34.483,32.328,34.505,32.293,34.51,32.249z M34.522,34.649v-1.22
			c0-0.06-0.021-0.109-0.061-0.149c-0.04-0.041-0.089-0.061-0.145-0.061h-1.232c-0.056,0-0.104,0.02-0.145,0.061
			c-0.04,0.04-0.061,0.09-0.061,0.149v1.22c0,0.062,0.021,0.111,0.061,0.151c0.041,0.041,0.089,0.062,0.145,0.062h1.232
			c0.056,0,0.104-0.021,0.145-0.062C34.502,34.761,34.522,34.711,34.522,34.649z"/>
	</g>
</g>
</svg>
