<?xml version="1.0" encoding="utf-8"?>
<!-- Generator: Adobe Illustrator 16.0.0, SVG Export Plug-In . SVG Version: 6.00 Build 0)  -->
<!DOCTYPE svg PUBLIC "-//W3C//DTD SVG 1.1//EN" "http://www.w3.org/Graphics/SVG/1.1/DTD/svg11.dtd">
<svg version="1.1" id="Layer_1" xmlns="http://www.w3.org/2000/svg" xmlns:xlink="http://www.w3.org/1999/xlink" x="0px" y="0px"
	 width="50px" height="50px" viewBox="0 0 50 50" enable-background="new 0 0 50 50" xml:space="preserve">
<path fill="#2CBEC3" d="M25,2c12.682,0,23.001,10.317,23.001,23c0,12.682-10.319,23.001-23.001,23.001C12.317,48.001,2,37.682,2,25
	C2,12.317,12.317,2,25,2 M25,0C11.193,0,0,11.193,0,25s11.193,25,25,25c13.807,0,25-11.193,25-25S38.807,0,25,0L25,0z"/>
<path fill="#2CBEC3" d="M37.366,24.764c0.007,0.02,0.012,0.053,0.012,0.102c0,0.128-0.043,0.241-0.14,0.335
	c-0.097,0.095-0.203,0.144-0.334,0.144c-0.109,0-0.225-0.051-0.34-0.15c-0.493-0.457-0.953-0.799-1.383-1.026
	c-0.44-0.229-0.948-0.343-1.521-0.343c-0.677,0-1.31,0.185-1.906,0.553c-0.594,0.366-1.104,0.847-1.533,1.441
	c-0.066,0.099-0.151,0.238-0.264,0.415c-0.104,0.18-0.177,0.298-0.21,0.36c-0.111,0.168-0.25,0.251-0.42,0.251
	c-0.177,0-0.32-0.083-0.432-0.251c-0.035-0.062-0.108-0.181-0.212-0.36c-0.104-0.177-0.193-0.316-0.26-0.415
	c-0.427-0.595-0.937-1.075-1.524-1.441c-0.596-0.368-1.226-0.553-1.9-0.553s-1.307,0.185-1.893,0.553
	c-0.597,0.366-1.102,0.847-1.532,1.441c-0.067,0.099-0.152,0.238-0.26,0.415c-0.103,0.18-0.176,0.298-0.213,0.36
	c-0.11,0.168-0.256,0.251-0.43,0.251s-0.312-0.083-0.42-0.251c-0.035-0.062-0.11-0.181-0.212-0.36
	c-0.112-0.177-0.195-0.316-0.262-0.415c-0.432-0.595-0.94-1.075-1.537-1.441c-0.595-0.368-1.227-0.553-1.9-0.553
	c-0.577,0-1.085,0.114-1.52,0.343c-0.435,0.228-0.893,0.569-1.38,1.026c-0.123,0.1-0.238,0.15-0.35,0.15
	c-0.126,0-0.235-0.049-0.332-0.144c-0.097-0.094-0.138-0.207-0.138-0.335c0-0.049,0.003-0.082,0.012-0.102
	c0.45-1.815,1.303-3.401,2.566-4.756s2.745-2.367,4.432-3.043c1.695-0.675,3.483-1.011,5.368-1.011c1.392,0,2.752,0.197,4.085,0.595
	c1.337,0.396,2.555,0.959,3.668,1.689c1.11,0.728,2.075,1.655,2.896,2.781C36.468,22.146,37.038,23.393,37.366,24.764L37.366,24.764
	z M25.951,24.465v8.628c0,1.033-0.373,1.927-1.13,2.681c-0.758,0.753-1.649,1.131-2.681,1.131s-1.923-0.378-2.678-1.131
	c-0.752-0.754-1.128-1.647-1.128-2.681c0-0.256,0.092-0.479,0.285-0.666c0.188-0.19,0.407-0.283,0.67-0.283
	c0.253,0,0.478,0.093,0.667,0.283c0.187,0.187,0.285,0.41,0.285,0.666c0,0.497,0.193,0.94,0.575,1.327
	c0.39,0.387,0.833,0.58,1.325,0.58c0.498,0,0.941-0.193,1.33-0.58c0.382-0.387,0.575-0.83,0.575-1.327v-8.628
	C24.375,24.356,24.691,24.3,25,24.3S25.625,24.356,25.951,24.465z M25.951,14.049v1.459c-0.416-0.021-0.732-0.03-0.951-0.03
	c-0.22,0-0.535,0.009-0.955,0.03v-1.459c0-0.259,0.101-0.48,0.287-0.67c0.189-0.189,0.413-0.283,0.668-0.283
	c0.262,0,0.479,0.094,0.667,0.283C25.854,13.568,25.951,13.79,25.951,14.049z"/>
</svg>
