<?xml version="1.0" encoding="utf-8"?>
<!-- Generator: Adobe Illustrator 16.0.0, SVG Export Plug-In . SVG Version: 6.00 Build 0)  -->
<!DOCTYPE svg PUBLIC "-//W3C//DTD SVG 1.1//EN" "http://www.w3.org/Graphics/SVG/1.1/DTD/svg11.dtd">
<svg version="1.1" id="Layer_1" xmlns="http://www.w3.org/2000/svg" xmlns:xlink="http://www.w3.org/1999/xlink" x="0px" y="0px"
	 width="50px" height="50px" viewBox="0 0 50 50" enable-background="new 0 0 50 50" xml:space="preserve">
<path fill="#2CBEC3" d="M25,0C11.193,0,0,11.193,0,25s11.193,25,25,25c13.807,0,25-11.193,25-25S38.807,0,25,0L25,0z"/>
<g>
	<path fill="#FFFFFF" d="M26.419,22.364c-0.395,0-0.73-0.138-1.005-0.414C25.138,21.675,25,21.34,25,20.946v-8.039h-8.039
		c-0.395,0-0.729,0.138-1.005,0.414c-0.276,0.276-0.414,0.611-0.414,1.005v21.349c0,0.395,0.138,0.73,0.414,1.006
		c0.275,0.275,0.61,0.414,1.005,0.414h16.078c0.394,0,0.729-0.139,1.005-0.414c0.275-0.275,0.414-0.611,0.414-1.006v-13.31H26.419z
		 M17.931,17.741h4.882v4.552c-0.12-0.146-0.342-0.185-0.532-0.265c-0.256-0.108-0.539-0.231-0.795-0.335
		c-0.072-0.02-0.145-0.039-0.217-0.059c-0.087-0.061-0.172-0.257-0.219-0.354c-0.047-0.007-0.093-0.014-0.139-0.021
		c0.007-0.151,0.102-0.16,0.139-0.276c0.032-0.101,0.004-0.234,0.055-0.329c0.037-0.065,0.117-0.066,0.158-0.123
		c0.036-0.051,0.062-0.14,0.072-0.203c0.022-0.114,0.04-0.271-0.014-0.384c-0.032-0.064-0.053-0.071-0.061-0.151
		c-0.01-0.095,0.028-0.408,0.03-0.477c0.005-0.176,0-0.335-0.043-0.505c0,0-0.053-0.155-0.134-0.202l-0.162-0.028l-0.102-0.092
		c-0.403-0.247-0.838-0.074-1.068,0.02c-0.334,0.108-0.548,0.576-0.399,1.272c0.025,0.118-0.065,0.171-0.058,0.236
		c0.012,0.142,0.016,0.482,0.149,0.565c0.012,0.008,0.106,0.033,0.106,0.026c0.015,0.137,0.026,0.276,0.04,0.413
		c0.033,0.092,0.114,0.103,0.139,0.232l-0.103,0.026c-0.047,0.097-0.133,0.294-0.221,0.354c-0.071,0.02-0.146,0.039-0.219,0.059
		c-0.253,0.104-0.536,0.228-0.792,0.335c-0.173,0.072-0.37,0.11-0.495,0.223V17.741z M32.163,31.537c0,0.139-0.044,0.252-0.133,0.34
		c-0.089,0.09-0.202,0.135-0.34,0.135H18.31c-0.139,0-0.252-0.045-0.34-0.135c-0.089-0.088-0.133-0.201-0.133-0.34v-0.943
		c0-0.139,0.044-0.252,0.133-0.342c0.088-0.088,0.201-0.133,0.34-0.133H31.69c0.138,0,0.251,0.045,0.34,0.133
		c0.089,0.09,0.133,0.203,0.133,0.342V31.537z M29.186,27.566c0,0.137-0.044,0.252-0.133,0.34s-0.202,0.133-0.34,0.133H18.31
		c-0.139,0-0.252-0.045-0.34-0.133c-0.089-0.088-0.133-0.203-0.133-0.34v-0.947c0-0.137,0.044-0.25,0.133-0.34
		c0.088-0.088,0.201-0.133,0.34-0.133h10.403c0.138,0,0.251,0.045,0.34,0.133c0.089,0.09,0.133,0.203,0.133,0.34V27.566z"/>
	<path fill="#FFFFFF" d="M33.453,18.522l-4.611-4.61c-0.492-0.493-1.143-0.813-1.95-0.961v7.522h7.521
		C34.265,19.665,33.944,19.015,33.453,18.522z"/>
</g>
</svg>
